<svg viewBox="0 0 800 350" xmlns="http://www.w3.org/2000/svg">
  <defs>
    <linearGradient id="bgGradient" x1="0%" y1="0%" x2="100%" y2="100%">
      <stop offset="0%" stop-color="#0e1e3a"/><stop offset="100%" stop-color="#1a2e4a"/>
    </linearGradient>
  </defs>

  <rect width="800" height="350" fill="url(#bgGradient)"/>
  <circle cx="100" cy="80" r="60" fill="#f58220" opacity="0.1"/>
  <circle cx="750" cy="280" r="80" fill="#1abc9c" opacity="0.08"/>

  <!-- Laptop -->
  <g>
    <rect x="150" y="80" width="500" height="220" rx="12" fill="#ffffff" filter="drop-shadow(0 20px 40px rgba(0,0,0,0.3))"/>
    <rect x="160" y="90" width="480" height="200" rx="8" fill="#f5f7fa"/>
    <rect x="170" y="100" width="460" height="180" rx="4" fill="#ffffff"/>

    <!-- Dashboard header -->
    <rect x="170" y="100" width="460" height="40" fill="#0e1e3a" rx="4"/>
    <text x="185" y="128" font-family="Arial, Helvetica, sans-serif" font-size="14" fill="#ffffff" font-weight="bold">School Overview</text>
    <circle cx="615" cy="120" r="4" fill="#f58220"/>
    <circle cx="625" cy="120" r="4" fill="#1abc9c"/>
    <circle cx="635" cy="120" r="4" fill="#8e44ad"/>

    <!-- Bar Chart -->
    <g transform="translate(190, 160)">
      <rect x="0" y="45" width="25" height="80" fill="#f58220" rx="3"/>
      <rect x="35" y="35" width="25" height="90" fill="#f58220" rx="3"/>
      <rect x="70" y="50" width="25" height="75" fill="#f58220" rx="3"/>
      <rect x="105" y="30" width="25" height="95" fill="#f58220" rx="3"/>
      <line x1="-5" y1="0" x2="140" y2="0" stroke="#e0e0e0" stroke-width="1"/>
      <line x1="-5" y1="35" x2="140" y2="35" stroke="#e0e0e0" stroke-width="1"/>
      <line x1="-5" y1="70" x2="140" y2="70" stroke="#e0e0e0" stroke-width="1"/>
    </g>

    <!-- Pie Chart -->
    <g transform="translate(380, 190)">
      <circle cx="0" cy="0" r="35" fill="none" stroke="#f58220" stroke-width="20" stroke-dasharray="55 220" opacity="0.9"/>
      <circle cx="0" cy="0" r="35" fill="none" stroke="#1abc9c" stroke-width="20" stroke-dasharray="40 220" stroke-dashoffset="-55" opacity="0.9"/>
      <circle cx="0" cy="0" r="35" fill="none" stroke="#8e44ad" stroke-width="20" stroke-dasharray="30 220" stroke-dashoffset="-95" opacity="0.9"/>
    </g>

    <!-- Line Chart -->
    <g transform="translate(530, 160)">
      <polyline points="0,50 20,35 40,45 60,20 80,30 100,15" fill="none" stroke="#1abc9c" stroke-width="3" stroke-linecap="round" stroke-linejoin="round"/>
      <circle cx="0" cy="50" r="3" fill="#1abc9c"/>
      <circle cx="20" cy="35" r="3" fill="#1abc9c"/>
      <circle cx="40" cy="45" r="3" fill="#1abc9c"/>
      <circle cx="60" cy="20" r="3" fill="#1abc9c"/>
      <circle cx="80" cy="30" r="3" fill="#1abc9c"/>
      <circle cx="100" cy="15" r="3" fill="#1abc9c"/>
    </g>

    <!-- Keyboard base -->
    <rect x="140" y="300" width="520" height="16" fill="#0e1e3a" rx="0"/>
    <rect x="145" y="303" width="510" height="6" fill="#1a2e4a" opacity="0.5"/>
  </g>

  <!-- Floating badges -->
  <circle cx="680" cy="140" r="24" fill="#f58220" opacity="0.85" filter="drop-shadow(0 4px 12px rgba(0,0,0,0.2))"/>
  <text x="680" y="148" text-anchor="middle" font-family="Arial, Helvetica, sans-serif" font-size="20" fill="#ffffff" font-weight="bold">!</text>

  <rect x="680" y="180" width="48" height="28" rx="14" fill="#1abc9c" opacity="0.85" filter="drop-shadow(0 4px 12px rgba(0,0,0,0.2))"/>
  <text x="704" y="198" text-anchor="middle" font-family="Arial, Helvetica, sans-serif" font-size="12" fill="#ffffff" font-weight="bold">+3</text>

  <circle cx="690" cy="280" r="20" fill="#8e44ad" opacity="0.85" filter="drop-shadow(0 4px 12px rgba(0,0,0,0.2))"/>
  <path d="M682,280 L688,286 L698,274" fill="none" stroke="#fff" stroke-width="2.5" stroke-linecap="round" stroke-linejoin="round"/>

  <text x="400" y="335" text-anchor="middle" font-family="Arial, Helvetica, sans-serif" font-size="16" fill="#ffffff" font-weight="bold">Executive Dashboard — Real-time School Overview</text>
</svg>