<svg viewBox="0 0 800 350" xmlns="http://www.w3.org/2000/svg">
  <defs>
    <linearGradient id="bgG2" x1="0%" y1="0%" x2="100%" y2="100%">
      <stop offset="0%" stop-color="#f0f8f7"/><stop offset="100%" stop-color="#e8f5f2"/>
    </linearGradient>
  </defs>

  <rect width="800" height="350" fill="url(#bgG2)"/>
  <circle cx="120" cy="100" r="50" fill="#1abc9c" opacity="0.08"/>
  <circle cx="700" cy="260" r="70" fill="#1abc9c" opacity="0.06"/>

  <!-- Phone -->
  <g>
    <rect x="100" y="80" width="220" height="250" rx="20" fill="#0e1e3a" filter="drop-shadow(0 16px 32px rgba(0,0,0,0.15))"/>
    <rect x="180" y="85" width="60" height="20" rx="10" fill="#0e1e3a"/>
    <rect x="110" y="100" width="200" height="220" rx="16" fill="#ffffff"/>
    <rect x="115" y="105" width="190" height="210" rx="14" fill="#f9f9f9"/>

    <!-- Notification banner -->
    <rect x="115" y="105" width="190" height="50" fill="#1abc9c" rx="14"/>
    <rect x="115" y="141" width="190" height="14" fill="#1abc9c"/>
    <circle cx="135" cy="125" r="6" fill="#ffffff" opacity="0.8"/>
    <rect x="150" y="120" width="140" height="6" fill="#ffffff" opacity="0.8" rx="3"/>
    <rect x="150" y="132" width="120" height="5" fill="#ffffff" opacity="0.6" rx="2"/>

    <!-- Checklist items -->
    <rect x="125" y="165" width="170" height="35" fill="#ffffff" rx="6"/>
    <circle cx="140" cy="182" r="5" fill="#1abc9c"/>
    <rect x="155" y="176" width="130" height="5" fill="#0e1e3a" opacity="0.8" rx="2"/>
    <rect x="155" y="185" width="100" height="4" fill="#0e1e3a" opacity="0.4" rx="2"/>

    <rect x="125" y="210" width="170" height="35" fill="#f5f5f5" rx="6"/>
    <rect x="136" y="223" width="10" height="10" rx="2" fill="#f58220" opacity="0.8"/>
    <rect x="155" y="221" width="130" height="5" fill="#0e1e3a" opacity="0.8" rx="2"/>
    <rect x="155" y="230" width="110" height="4" fill="#0e1e3a" opacity="0.4" rx="2"/>

    <rect x="125" y="255" width="170" height="35" fill="#f5f5f5" rx="6"/>
    <circle cx="140" cy="272" r="5" fill="#ffffff" stroke="#0e1e3a" stroke-width="2"/>
    <rect x="155" y="266" width="130" height="5" fill="#0e1e3a" opacity="0.8" rx="2"/>
    <rect x="155" y="275" width="90" height="4" fill="#0e1e3a" opacity="0.4" rx="2"/>
  </g>

  <!-- Bell icon -->
  <g transform="translate(380, 120)">
    <path d="M 0 -10 C -4 -10 -8 -6 -8 0 L -8 8 C -8 10 -6 12 0 12 C 6 12 8 10 8 8 L 8 0 C 8 -6 4 -10 0 -10 M -3 12 L 3 12 L 3 14 C 3 16 2 18 0 18 C -2 18 -3 16 -3 14 Z" fill="none" stroke="#1abc9c" stroke-width="2" stroke-linecap="round" stroke-linejoin="round"/>
    <circle cx="8" cy="-8" r="5" fill="#f58220"/>
  </g>

  <!-- Calendar icon -->
  <g transform="translate(510, 140)">
    <rect x="-12" y="-12" width="24" height="24" rx="2" fill="none" stroke="#1abc9c" stroke-width="2"/>
    <line x1="-8" y1="-6" x2="8" y2="-6" stroke="#1abc9c" stroke-width="2"/>
    <circle cx="-6" cy="0" r="1.5" fill="#1abc9c"/>
    <circle cx="0" cy="0" r="1.5" fill="#1abc9c"/>
    <circle cx="6" cy="0" r="1.5" fill="#1abc9c"/>
    <circle cx="-6" cy="6" r="1.5" fill="#1abc9c"/>
  </g>

  <!-- Grade sheet icon -->
  <g transform="translate(600, 120)">
    <rect x="-14" y="-12" width="28" height="24" rx="2" fill="none" stroke="#8e44ad" stroke-width="2"/>
    <line x1="-7" y1="-8" x2="7" y2="-8" stroke="#8e44ad" stroke-width="1.5"/>
    <line x1="-14" y1="-2" x2="14" y2="-2" stroke="#8e44ad" stroke-width="1.5"/>
    <line x1="-14" y1="4" x2="14" y2="4" stroke="#8e44ad" stroke-width="1.5"/>
  </g>

  <!-- Message bubble -->
  <g transform="translate(470, 260)">
    <path d="M -12 -8 L 12 -8 C 14 -8 16 -6 16 -4 L 16 8 C 16 10 14 12 12 12 L -4 12 L -10 16 L -8 12 L -12 12 C -14 12 -16 10 -16 8 L -16 -4 C -16 -6 -14 -8 -12 -8 Z" fill="none" stroke="#1abc9c" stroke-width="2" stroke-linecap="round" stroke-linejoin="round"/>
    <circle cx="-4" cy="2" r="1.5" fill="#1abc9c"/>
    <circle cx="4" cy="2" r="1.5" fill="#1abc9c"/>
    <circle cx="12" cy="2" r="1.5" fill="#1abc9c"/>
  </g>

  <!-- Star icon -->
  <g transform="translate(590, 260)">
    <path d="M 0 -10 L 3 -2 L 11 -2 L 4 4 L 7 12 L 0 6 L -7 12 L -4 4 L -11 -2 L -3 -2 Z" fill="#f58220" opacity="0.9"/>
  </g>

  <circle cx="350" cy="200" r="3" fill="#1abc9c" opacity="0.3"/>
  <circle cx="360" cy="220" r="2" fill="#f58220" opacity="0.2"/>
  <circle cx="650" cy="200" r="2.5" fill="#8e44ad" opacity="0.25"/>

  <text x="400" y="335" text-anchor="middle" font-family="Arial, Helvetica, sans-serif" font-size="16" fill="#0e1e3a" font-weight="bold">Teacher Tools — All teaching tasks in one app</text>
</svg>